# xmcd CD database file
#
# Track frame offsets:
#	150
#	19245
#	39522
#	64302
#	91590
#	115691
#	135164
#	156811
#	179392
#	200774
#	225138
#	249461
#	276638
#	295985
#
# Disc length: 4264 seconds
#
# Revision: 1
# Processed by: cddbd v1.5.2PL0 Copyright (c) Steve Scherf et al.
# Submitted via: Feurio! 1.68 - http://www.feurio.com
#
DISCID=bd10a60e
DTITLE=Various Artist - Jackie's Steppers Jams
DYEAR=1900
DGENRE=R&B
TTITLE0=Glen Lewis - What's Come Over Me
TTITLE1=Les Nubians - Tabou
TTITLE2=Luther Vandross - Only Human
TTITLE3=Steve Winwood - Plenty Lovin'
TTITLE4=George Benson - Poquito Funk
TTITLE5=Kool and The Gang - Summer Madness
TTITLE6=Kindred and The Family Soul - The Question
TTITLE7=Maysa - Friendly Pressure
TTITLE8=R. Kelly - Happy People
TTITLE9=Will Downing - Don't Talk To Me Like That
TTITLE10=Darryl Hall - Cab Driver
TTITLE11=Liz Hogue - Dream Lover
TTITLE12=Sting - Tell Me
TTITLE13=Harold Melvin and Blue Notes - You Know How To Make Me
EXTD=
EXTT0=
EXTT1=
EXTT2=
EXTT3=
EXTT4=
EXTT5=
EXTT6=
EXTT7=
EXTT8=
EXTT9=
EXTT10=
EXTT11=
EXTT12=
EXTT13=
PLAYORDER=
